<svg width="214" height="157" viewBox="0 0 214 157" fill="none" xmlns="http://www.w3.org/2000/svg">
<g clip-path="url(#clip0_320_158)">
<path d="M15.8645 145.042C12.9683 144.132 11.7323 149.136 14.6213 150.075C17.5173 150.985 18.7533 145.981 15.8645 145.042Z" fill="#3F3D56"/>
<path d="M31.9226 151.482C29.0264 150.572 27.7904 155.576 30.6794 156.515C33.5755 157.425 34.8114 152.421 31.9226 151.482Z" fill="#3F3D56"/>
<path d="M38.4217 98.7093L38.3769 98.6949L30.9169 121.737L29.9333 121.422L37.4468 98.2151C37.4631 97.8575 37.5864 97.5169 37.7963 97.2499C38.0062 96.983 38.29 96.8057 38.6006 96.7476C42.3314 96.0764 43.8436 99.8441 43.8436 99.8441L43.8287 99.8692L36.2017 123.427L35.2182 123.112L42.6207 100.248C40.3671 97.7119 38.4217 98.7093 38.4217 98.7093Z" fill="#3F3D56"/>
<path d="M29.7987 152.778C25.4014 152.702 19.9637 149.998 16.2562 147.972C15.274 147.436 14.4897 146.523 14.0416 145.394C13.5935 144.265 13.5104 142.991 13.8069 141.799L18.6119 122.35C18.8264 121.488 19.1926 120.685 19.6884 119.989C20.1842 119.293 20.7992 118.719 21.496 118.302C22.1722 117.893 22.9152 117.647 23.6787 117.58C24.4422 117.513 25.2097 117.626 25.933 117.912C26.1045 118 30.7726 119.486 33.8615 120.47C35.6787 121.049 36.9917 121.467 37.0796 121.5C37.1523 121.528 40.418 122.804 39.8385 127.293C39.3933 130.74 36.034 143.444 34.6102 148.745C34.3009 149.904 33.6744 150.92 32.8221 151.646C31.9698 152.371 30.9361 152.768 29.8717 152.779C29.8475 152.779 29.8229 152.778 29.7987 152.778Z" fill="#29AAE3"/>
<path d="M16.1495 144.763L22.379 120.775L37.0281 125.485L37.1157 125.133L22.1605 120.324L22.1155 120.498L15.8409 144.66L16.1495 144.763Z" fill="#3F3D56"/>
<path d="M214 4.00195H85.6816V73.2752H214V4.00195Z" fill="#E5E5E5"/>
<path d="M210.98 10H90V67.7969H210.98V10Z" fill="white"/>
<path d="M213.945 0H85.6271V6.20195H213.945V0Z" fill="#29AAE3"/>
<path d="M89.6781 4.23945C90.2361 4.23945 90.6885 3.7248 90.6885 3.08994C90.6885 2.45508 90.2361 1.94043 89.6781 1.94043C89.1201 1.94043 88.6677 2.45508 88.6677 3.08994C88.6677 3.7248 89.1201 4.23945 89.6781 4.23945Z" fill="white"/>
<path d="M93.5131 4.23945C94.0711 4.23945 94.5235 3.7248 94.5235 3.08994C94.5235 2.45508 94.0711 1.94043 93.5131 1.94043C92.9551 1.94043 92.5027 2.45508 92.5027 3.08994C92.5027 3.7248 92.9551 4.23945 93.5131 4.23945Z" fill="white"/>
<path d="M97.3483 4.23945C97.9063 4.23945 98.3587 3.7248 98.3587 3.08994C98.3587 2.45508 97.9063 1.94043 97.3483 1.94043C96.7903 1.94043 96.3379 2.45508 96.3379 3.08994C96.3379 3.7248 96.7903 4.23945 97.3483 4.23945Z" fill="white"/>
<path d="M146.611 38.0394C146.614 40.6543 146.204 43.2485 145.401 45.6986C145.036 46.8209 144.589 47.9061 144.063 48.9426C142.375 52.295 139.938 55.0807 136.999 57.018C134.061 58.9553 130.725 59.9755 127.329 59.9755C123.932 59.9755 120.596 58.9553 117.658 57.018C114.719 55.0807 112.283 52.295 110.594 48.9426C110.423 48.6054 110.261 48.2633 110.108 47.916C108.797 44.958 108.092 41.7006 108.046 38.3884C107.999 35.0761 108.613 31.7949 109.841 28.791C111.068 25.7871 112.878 23.1385 115.133 21.0438C117.389 18.9491 120.033 17.4628 122.865 16.6964C125.698 15.9299 128.647 15.9032 131.49 16.6183C134.333 17.3334 136.997 18.7717 139.281 20.8253C141.566 22.8789 143.412 25.4944 144.682 28.4757C145.951 31.4571 146.611 34.7267 146.611 38.0394Z" fill="#B9B9B9"/>
<path d="M128.331 41.7419C130.367 41.7419 132.018 39.8642 132.018 37.5479C132.018 35.2317 130.367 33.354 128.331 33.354C126.295 33.354 124.645 35.2317 124.645 37.5479C124.645 39.8642 126.295 41.7419 128.331 41.7419Z" fill="#FECD09"/>
<path d="M110.108 47.9156C111.732 45.9187 113.903 42.7482 115.94 45.0391C116.962 46.1197 118.561 48.7974 120.092 47.0468L132.048 33.4443C132.273 33.1915 132.541 32.9924 132.834 32.8587C133.128 32.725 133.442 32.6595 133.758 32.666C134.075 32.6724 134.387 32.7507 134.676 32.8962C134.965 33.0418 135.226 33.2516 135.443 33.5134L145.401 45.6982C145.036 46.8205 144.589 47.9056 144.064 48.9422H110.594L110.108 47.9156Z" fill="#6DA319"/>
<path d="M185.986 33.7407C185.854 33.7407 185.727 33.8004 185.634 33.9067C185.541 34.013 185.488 34.1572 185.488 34.3075C185.488 34.4578 185.541 34.6019 185.634 34.7082C185.727 34.8145 185.854 34.8742 185.986 34.8742H191.214C191.346 34.8742 191.472 34.8145 191.566 34.7082C191.659 34.6019 191.712 34.4578 191.712 34.3075C191.712 34.1572 191.659 34.013 191.566 33.9067C191.472 33.8004 191.346 33.7407 191.214 33.7407H185.986Z" fill="#29AAE3"/>
<path d="M162.436 25.4175C162.37 25.4173 162.305 25.4319 162.245 25.4603C162.184 25.4887 162.129 25.5304 162.083 25.583C162.036 25.6357 162 25.6982 161.974 25.7671C161.949 25.8359 161.936 25.9097 161.936 25.9842C161.936 26.0587 161.949 26.1325 161.974 26.2014C162 26.2702 162.036 26.3328 162.083 26.3854C162.129 26.438 162.184 26.4798 162.245 26.5082C162.305 26.5366 162.37 26.5511 162.436 26.551H191.442C191.574 26.5506 191.701 26.4908 191.794 26.3845C191.887 26.2783 191.939 26.1343 191.939 25.9842C191.939 25.8341 191.887 25.6902 191.794 25.5839C191.701 25.4777 191.574 25.4178 191.442 25.4175H162.436Z" fill="#B9B9B9"/>
<path d="M162.436 29.5786C162.37 29.5785 162.305 29.593 162.245 29.6214C162.184 29.6498 162.129 29.6915 162.083 29.7442C162.036 29.7968 162 29.8594 161.974 29.9282C161.949 29.997 161.936 30.0708 161.936 30.1454C161.936 30.2199 161.949 30.2937 161.974 30.3625C162 30.4314 162.036 30.4939 162.083 30.5465C162.129 30.5992 162.184 30.6409 162.245 30.6693C162.305 30.6977 162.37 30.7122 162.436 30.7121H191.442C191.574 30.7118 191.701 30.6519 191.794 30.5457C191.887 30.4394 191.939 30.2954 191.939 30.1454C191.939 29.9953 191.887 29.8513 191.794 29.745C191.701 29.6388 191.574 29.5789 191.442 29.5786H162.436Z" fill="#B9B9B9"/>
<path d="M185.986 60.4478C185.854 60.4481 185.728 60.5079 185.635 60.6142C185.542 60.7204 185.489 60.8644 185.489 61.0145C185.489 61.1646 185.542 61.3086 185.635 61.4148C185.728 61.521 185.854 61.5809 185.986 61.5812H191.214C191.279 61.5814 191.344 61.5668 191.405 61.5384C191.465 61.51 191.52 61.4683 191.567 61.4157C191.613 61.363 191.65 61.3005 191.675 61.2316C191.7 61.1628 191.713 61.089 191.713 61.0145C191.713 60.94 191.7 60.8662 191.675 60.7973C191.65 60.7285 191.613 60.666 191.567 60.6133C191.52 60.5607 191.465 60.5189 191.405 60.4905C191.344 60.4621 191.279 60.4476 191.214 60.4478H185.986Z" fill="#29AAE3"/>
<path d="M162.436 52.1235C162.303 52.1235 162.177 52.1832 162.083 52.2895C161.99 52.3958 161.937 52.54 161.937 52.6903C161.937 52.8406 161.99 52.9847 162.083 53.091C162.177 53.1973 162.303 53.257 162.436 53.257H191.442C191.574 53.257 191.701 53.1973 191.794 53.091C191.888 52.9847 191.94 52.8406 191.94 52.6903C191.94 52.54 191.888 52.3958 191.794 52.2895C191.701 52.1832 191.574 52.1235 191.442 52.1235H162.436Z" fill="#B9B9B9"/>
<path d="M162.436 56.2856C162.37 56.2855 162.305 56.3 162.245 56.3284C162.184 56.3568 162.129 56.3986 162.083 56.4512C162.036 56.5038 162 56.5664 161.974 56.6352C161.949 56.7041 161.936 56.7779 161.936 56.8524C161.936 56.9269 161.949 57.0007 161.974 57.0695C162 57.1384 162.036 57.2009 162.083 57.2536C162.129 57.3062 162.184 57.3479 162.245 57.3763C162.305 57.4047 162.37 57.4193 162.436 57.4191H191.442C191.574 57.4191 191.701 57.3594 191.794 57.2531C191.888 57.1468 191.94 57.0027 191.94 56.8524C191.94 56.7021 191.888 56.5579 191.794 56.4516C191.701 56.3454 191.574 56.2856 191.442 56.2856H162.436Z" fill="#B9B9B9"/>
<path d="M179.848 19.0669H178.277L176.928 16.8687H176.358L177.035 19.0669H175.498L174.867 18.3493H174.334L174.6 19.6769L174.334 20.8374H174.867L175.498 20.1198L175.508 20.1009H177.053L176.358 22.357H176.928L178.282 20.1497L178.298 20.1009H179.848C179.968 20.1009 180.084 20.0464 180.169 19.9494C180.254 19.8525 180.302 19.721 180.302 19.5839C180.302 19.4468 180.254 19.3153 180.169 19.2183C180.084 19.1214 179.968 19.0669 179.848 19.0669Z" fill="#3E3D3D"/>
<path d="M178.516 47.75H176.034C175.812 47.7497 175.599 47.6491 175.442 47.4703C175.285 47.2915 175.196 47.049 175.196 46.7962V44.2274C175.195 44.0566 175.244 43.8902 175.335 43.7541C175.425 43.618 175.553 43.5198 175.698 43.4748C176.73 43.1638 177.815 43.1647 178.846 43.4773C178.993 43.5213 179.122 43.6194 179.214 43.756C179.306 43.8926 179.355 44.0601 179.355 44.2322V46.7962C179.354 47.049 179.266 47.2915 179.109 47.4703C178.952 47.6491 178.739 47.7497 178.516 47.75Z" fill="#B9B9B9"/>
<path d="M178.878 44.3208H175.672V45.6882H178.878V44.3208Z" fill="white"/>
<path d="M176.073 47.0556C176.294 47.0556 176.474 46.8516 176.474 46.5998C176.474 46.3481 176.294 46.144 176.073 46.144C175.852 46.144 175.672 46.3481 175.672 46.5998C175.672 46.8516 175.852 47.0556 176.073 47.0556Z" fill="white"/>
<path d="M178.477 47.0556C178.698 47.0556 178.878 46.8516 178.878 46.5998C178.878 46.3481 178.698 46.144 178.477 46.144C178.256 46.144 178.076 46.3481 178.076 46.5998C178.076 46.8516 178.256 47.0556 178.477 47.0556Z" fill="white"/>
<path d="M179.188 49.0502H175.32L176.234 48.1831H178.273L179.188 49.0502ZM175.921 48.8024H178.586L178.194 48.4308H176.313L175.921 48.8024Z" fill="#B9B9B9"/>
<path d="M179.388 47.9226H175.12C175.059 47.9226 175.001 47.8952 174.958 47.8464C174.915 47.7976 174.891 47.7315 174.891 47.6625C174.891 47.5935 174.915 47.5273 174.958 47.4785C175.001 47.4298 175.059 47.4023 175.12 47.4023H179.388C179.448 47.4023 179.506 47.4298 179.549 47.4785C179.592 47.5273 179.616 47.5935 179.616 47.6625C179.616 47.7315 179.592 47.7976 179.549 47.8464C179.506 47.8952 179.448 47.9226 179.388 47.9226Z" fill="#B9B9B9"/>
<path d="M42.0759 100.657C42.2104 100.345 42.2833 100.003 42.2893 99.6558C42.2952 99.3085 42.2342 98.9639 42.1105 98.6463C41.9867 98.3287 41.8033 98.0458 41.573 97.8176C41.3428 97.5894 41.0714 97.4214 40.7779 97.3254L40.3764 88.8931L37.2759 91.5036L38.1325 99.1108C38.0235 99.6824 38.1026 100.28 38.3547 100.789C38.6069 101.299 39.0146 101.686 39.5007 101.876C39.9868 102.067 40.5174 102.048 40.992 101.823C41.4666 101.598 41.8523 101.183 42.0759 100.657Z" fill="#FFB7B7"/>
<path d="M66.0953 102.225C65.9201 101.941 65.8018 101.616 65.7488 101.274C65.6959 100.932 65.7095 100.58 65.7887 100.245C65.8679 99.9094 66.0109 99.5978 66.2074 99.3319C66.404 99.066 66.6494 98.8524 66.9263 98.7061L66.1804 90.3042L69.5976 92.3397L69.782 100.006C69.9672 100.552 69.97 101.156 69.7899 101.704C69.6098 102.252 69.2594 102.705 68.8049 102.979C68.3505 103.252 67.8237 103.327 67.3243 103.188C66.8249 103.049 66.3876 102.706 66.0953 102.225H66.0953Z" fill="#FFB7B7"/>
<path d="M47.8592 153.879L50.3005 153.879L51.4621 143.165H47.8588L47.8592 153.879Z" fill="#FFB7B7"/>
<path d="M47.2363 152.972L52.0444 152.972H52.0446C52.8572 152.972 53.6365 153.339 54.2111 153.993C54.7857 154.646 55.1086 155.533 55.1086 156.458V156.571L47.2365 156.571L47.2363 152.972Z" fill="#2F2E41"/>
<path d="M60.1897 152.211L62.577 152.793L65.6859 142.594L62.1626 141.735L60.1897 152.211Z" fill="#FFB7B7"/>
<path d="M59.7479 151.176L64.4492 152.322L64.4494 152.322C65.244 152.516 65.9383 153.061 66.3798 153.837C66.8212 154.613 66.9736 155.557 66.8034 156.461L66.7825 156.572L59.0851 154.695L59.7479 151.176Z" fill="#2F2E41"/>
<path d="M43.4572 92.5674C43.4572 92.5674 40.8598 101.7 43.4036 112.028L45.9926 124.399L46.6352 151.774L51.8781 149.859L54.0141 108.105L63.8526 127.104L58.6745 149.859L64.6293 150.08L71.0598 125.472L65.4061 102.509L64.3704 96.9121L43.4572 92.5674Z" fill="#2F2E41"/>
<path d="M64.6842 62.2368L59.4694 58.855L50.4476 58.2617L44.1898 61.9995L46.7329 81.8493C46.7329 81.8493 41.8825 89.7691 43.6509 95.0459C45.8336 101.559 64.9194 104.956 64.5461 98.6004C63.957 88.57 63.0472 89.2618 62.3801 84.3432C61.6482 78.9462 66.7702 72.0261 66.7702 72.0261L64.6842 62.2368Z" fill="#CBCBCB"/>
<path d="M46.1192 63.9575L45.5379 61.0913C45.5379 61.0913 43.0579 61.4565 41.3393 66.918C39.6206 72.3794 36.5655 83.8922 36.5655 83.8922L36.7251 88.0747C36.7251 88.0747 35.5477 89.6224 36.3601 90.3293C37.1724 91.0361 34.8927 91.9945 36.0472 92.9991C36.554 93.4409 36.9379 94.0399 37.1525 94.7241C37.3672 95.4083 37.4034 96.1484 37.257 96.8555L40.8031 95.6096L40.5424 89.024L41.9473 83.8329L45.702 70.8398L46.1192 63.9575Z" fill="#CBCBCB"/>
<path d="M62.7747 64.4462L63.5646 61.6666C63.5646 61.6666 65.0193 60.9893 66.0931 64.8059C67.167 68.6225 67.6767 78.2807 67.6767 78.2807L69.7626 89.7933C69.7626 89.7933 70.5421 91.2594 70.1277 91.6798C69.7133 92.1001 71.9479 92.691 70.6491 93.4695C69.3504 94.2481 70.7612 93.3019 70.2759 95.077C69.9572 96.2429 70.2841 96.8556 70.2841 96.8556L66.2686 95.9365L65.1735 90.0351L62.6895 79.0631L62.7747 64.4462Z" fill="#CBCBCB"/>
<path d="M54.9781 55.7654C58.8029 55.7654 61.9035 52.2379 61.9035 47.8864C61.9035 43.5349 58.8029 40.0073 54.9781 40.0073C51.1532 40.0073 48.0526 43.5349 48.0526 47.8864C48.0526 52.2379 51.1532 55.7654 54.9781 55.7654Z" fill="#2F2E41"/>
<path d="M54.2665 42.9831C52.7763 41.2639 50.9729 39.9371 48.9833 39.0963C47.7062 38.558 46.3162 38.2255 44.981 38.5312C43.6458 38.8368 42.3832 39.8877 42.0107 41.3781C41.7061 42.5968 42.0206 43.909 42.4933 45.0562C42.966 46.2034 43.5971 47.2672 43.9793 48.4573C44.3693 49.6715 44.4866 50.9774 44.3206 52.2563C44.1545 53.5352 43.7103 54.7467 43.0282 55.7807C42.3462 56.8148 41.448 57.6387 40.4151 58.1776C39.3823 58.7166 38.2474 58.9535 37.1136 58.8669C38.4255 59.067 39.6348 59.7684 40.9171 60.1417C42.1993 60.5151 43.7128 60.4897 44.6657 59.4446C45.6739 58.3388 45.6941 56.5409 45.6453 54.9486C45.5729 52.5816 45.5004 50.2146 45.4279 47.8476C45.391 46.6405 45.3594 45.3947 45.7421 44.268C46.1247 43.1413 47.0341 42.1547 48.0957 42.165C48.9003 42.1728 49.6125 42.7273 50.2577 43.2742C50.903 43.8211 51.586 44.4046 52.3874 44.4859C53.1889 44.5673 54.104 43.8925 54.044 42.9796L54.2665 42.9831Z" fill="#2F2E41"/>
<path d="M60.148 53.5642C61.4985 50.7535 60.5906 47.2295 58.1201 45.6931C55.6496 44.1566 52.5521 45.1896 51.2016 48.0002C49.8511 50.8109 50.7591 54.3349 53.2296 55.8713C55.7 57.4078 58.7975 56.3748 60.148 53.5642Z" fill="#FFB7B7"/>
<path d="M62.8443 50.3441H55.483L55.4075 49.1417L55.03 50.3441H53.8965L53.747 47.961L52.9989 50.3441H50.8057V50.226C50.8073 48.5669 51.3873 46.9763 52.4185 45.8032C53.4496 44.63 54.8477 43.9701 56.306 43.9683H57.3439C58.8022 43.9701 60.2002 44.63 61.2314 45.8032C62.2626 46.9763 62.8426 48.5669 62.8443 50.226V50.3441Z" fill="#2F2E41"/>
<path d="M51.9177 54.666L49.2295 51.6044L48.7762 44.8271H54.7099L54.563 44.994C52.5191 47.3164 50.3125 50.7244 51.9177 54.666Z" fill="#2F2E41"/>
<path d="M87.318 157H0.228581C0.167958 157 0.109817 156.973 0.0669497 156.924C0.0240824 156.875 0 156.809 0 156.74C0 156.671 0.0240824 156.605 0.0669497 156.556C0.109817 156.507 0.167958 156.48 0.228581 156.48H87.318C87.3786 156.48 87.4368 156.507 87.4796 156.556C87.5225 156.605 87.5466 156.671 87.5466 156.74C87.5466 156.809 87.5225 156.875 87.4796 156.924C87.4368 156.973 87.3786 157 87.318 157Z" fill="#CBCBCB"/>
</g>
<defs>
<clipPath id="clip0_320_158">
<rect width="214" height="157" fill="white"/>
</clipPath>
</defs>
</svg>
