<svg width="214" height="157" viewBox="0 0 214 157" fill="none" xmlns="http://www.w3.org/2000/svg">
<g clip-path="url(#clip0_320_366)">
<path d="M58.6947 156.794L53.1365 137.764C53.1365 137.764 59.2505 141.502 59.5284 146.26C59.5284 146.26 58.1388 122.473 55.3597 117.376C55.3597 117.376 59.8063 118.055 64.8087 144.561C64.8087 144.561 65.6424 113.978 58.1388 105.143C58.1388 105.143 68.4215 115.337 69.2552 137.425V156.794H58.6947Z" fill="#F2F2F2"/>
<path d="M162.932 156.794L161.595 152.219C161.595 152.219 163.065 153.117 163.132 154.261C163.132 154.261 162.798 148.542 162.13 147.316C162.13 147.316 163.199 147.48 164.402 153.853C164.402 153.853 164.602 146.499 162.798 144.375C162.798 144.375 165.27 146.826 165.471 152.137V156.794L162.932 156.794Z" fill="#F2F2F2"/>
<path d="M138.173 117.441C151.667 117.441 162.606 104.065 162.606 87.5658C162.606 71.0661 151.667 57.6904 138.173 57.6904C124.679 57.6904 113.74 71.0661 113.74 87.5658C113.74 104.065 124.679 117.441 138.173 117.441Z" fill="#F2F2F2"/>
<path d="M57.6284 2.2666H0V41.4136H57.6284V2.2666Z" fill="#B9B9B9"/>
<path d="M135.814 2.2666H78.1858V41.4136H135.814V2.2666Z" fill="#B9B9B9"/>
<path d="M214 2.2666H156.372V41.4136H214V2.2666Z" fill="#B9B9B9"/>
<path d="M148.14 156.901C148.101 156.824 147.189 154.962 146.873 151.097C146.583 147.55 146.77 141.572 149.305 133.234C154.108 117.437 148.198 104.691 148.138 104.564L148.429 104.357C148.445 104.389 149.97 107.639 150.871 112.813C152.061 119.674 151.628 126.807 149.621 133.377C144.826 149.147 148.391 156.613 148.427 156.686L148.14 156.901Z" fill="#3F3D56"/>
<path d="M146.261 103.636C147.471 103.636 148.452 102.437 148.452 100.958C148.452 99.4785 147.471 98.2793 146.261 98.2793C145.052 98.2793 144.071 99.4785 144.071 100.958C144.071 102.437 145.052 103.636 146.261 103.636Z" fill="#2189F7"/>
<path d="M153.17 113.526C154.38 113.526 155.361 112.327 155.361 110.848C155.361 109.369 154.38 108.169 153.17 108.169C151.96 108.169 150.979 109.369 150.979 110.848C150.979 112.327 151.96 113.526 153.17 113.526Z" fill="#3F3D56"/>
<path d="M148.452 120.119C149.662 120.119 150.643 118.92 150.643 117.441C150.643 115.961 149.662 114.762 148.452 114.762C147.242 114.762 146.261 115.961 146.261 117.441C146.261 118.92 147.242 120.119 148.452 120.119Z" fill="#2189F7"/>
<path d="M154.181 125.682C155.391 125.682 156.372 124.483 156.372 123.004C156.372 121.524 155.391 120.325 154.181 120.325C152.971 120.325 151.991 121.524 151.991 123.004C151.991 124.483 152.971 125.682 154.181 125.682Z" fill="#2189F7"/>
<path d="M146.767 134.336C147.977 134.336 148.958 133.137 148.958 131.657C148.958 130.178 147.977 128.979 146.767 128.979C145.557 128.979 144.576 130.178 144.576 131.657C144.576 133.137 145.557 134.336 146.767 134.336Z" fill="#3F3D56"/>
<path d="M149.463 157C149.463 157 147.272 150.407 153.844 145.462L149.463 157Z" fill="#3F3D56"/>
<path d="M146.769 156.88C146.769 156.88 145.772 149.869 138.056 149.929L146.769 156.88Z" fill="#3F3D56"/>
<path d="M57.5441 0H0.0842285V3.50262H57.5441V0Z" fill="#2189F7"/>
<path d="M135.898 0H78.27V3.50262H135.898V0Z" fill="#2189F7"/>
<path d="M213.916 0H156.456V3.50262H213.916V0Z" fill="#2189F7"/>
<path d="M14.8283 8.9624H4.3811V18.028H14.8283V8.9624Z" fill="white"/>
<path d="M53.2473 8.9624H24.4331V9.99259H53.2473V8.9624Z" fill="white"/>
<path d="M53.2473 13.0835H24.4331V14.1137H53.2473V13.0835Z" fill="white"/>
<path d="M53.2473 17.2041H24.4331V18.2343H53.2473V17.2041Z" fill="white"/>
<path d="M93.0141 8.9624H82.5669V18.028H93.0141V8.9624Z" fill="white"/>
<path d="M131.433 8.9624H102.619V9.99259H131.433V8.9624Z" fill="white"/>
<path d="M131.433 13.0835H102.619V14.1137H131.433V13.0835Z" fill="white"/>
<path d="M131.433 17.2041H102.619V18.2343H131.433V17.2041Z" fill="white"/>
<path d="M171.2 8.9624H160.753V18.028H171.2V8.9624Z" fill="white"/>
<path d="M209.619 8.9624H180.805V9.99259H209.619V8.9624Z" fill="white"/>
<path d="M209.619 13.0835H180.805V14.1137H209.619V13.0835Z" fill="white"/>
<path d="M209.619 17.2041H180.805V18.2343H209.619V17.2041Z" fill="white"/>
<path d="M9.6047 17.719C11.4659 17.719 12.9748 15.8741 12.9748 13.5983C12.9748 11.3225 11.4659 9.47754 9.6047 9.47754C7.74345 9.47754 6.23462 11.3225 6.23462 13.5983C6.23462 15.8741 7.74345 17.719 9.6047 17.719Z" fill="#2189F7"/>
<path d="M165.976 17.719C167.838 17.719 169.346 15.8741 169.346 13.5983C169.346 11.3225 167.838 9.47754 165.976 9.47754C164.115 9.47754 162.606 11.3225 162.606 13.5983C162.606 15.8741 164.115 17.719 165.976 17.719Z" fill="#2189F7"/>
<path d="M26.9221 41.4136H26.5851V42.6498H26.9221V41.4136Z" fill="#3F3D56"/>
<path d="M26.9221 92.0984H26.5851V89.626H26.9221V92.0984ZM26.9221 87.1536H26.5851V84.6811H26.9221V87.1536ZM26.9221 82.2087H26.5851V79.7362H26.9221V82.2087ZM26.9221 77.2638H26.5851V74.7914H26.9221V77.2638ZM26.9221 72.3189H26.5851V69.8465H26.9221V72.3189ZM26.9221 67.374H26.5851V64.9016H26.9221V67.374ZM26.9221 62.4292H26.5851V59.9567H26.9221V62.4292ZM26.9221 57.4843H26.5851V55.0118H26.9221V57.4843ZM26.9221 52.5394H26.5851V50.0669H26.9221V52.5394ZM26.9221 47.5945H26.5851V45.1221H26.9221V47.5945Z" fill="#3F3D56"/>
<path d="M27.7646 96.0131H26.5851V94.5708H26.922V95.6008H27.7646V96.0131Z" fill="#3F3D56"/>
<path d="M182.143 96.0131H180.112V95.6011H182.143V96.0131ZM178.081 96.0131H176.05V95.6011H178.081V96.0131ZM174.018 96.0131H171.987V95.6011H174.018V96.0131ZM169.956 96.0131H167.924V95.6011H169.956V96.0131ZM165.893 96.0131H163.862V95.6011H165.893V96.0131ZM161.83 96.0131H159.799V95.6011H161.83V96.0131ZM157.768 96.0131H155.737V95.6011H157.768V96.0131ZM153.705 96.0131H151.674V95.6011H153.705V96.0131ZM149.643 96.0131H147.611V95.6011H149.643V96.0131ZM145.58 96.0131H143.549V95.6011H145.58L145.58 96.0131ZM141.518 96.0131H139.486V95.6011H141.518V96.0131ZM137.455 96.0131H135.424V95.6011H137.455V96.0131ZM133.392 96.0131H131.361V95.6011H133.392V96.0131ZM129.33 96.0131H127.298V95.6011H129.33V96.0131ZM125.267 96.0131H123.236V95.6011H125.267V96.0131ZM121.204 96.0131H119.173V95.6011H121.204V96.0131ZM117.142 96.0131H115.11V95.6011H117.142V96.0131ZM113.079 96.0131H111.048V95.6011H113.079V96.0131ZM109.017 96.0131H106.985V95.6011H109.017V96.0131ZM104.954 96.0131H102.923V95.6011H104.954V96.0131ZM100.891 96.0131H98.8601V95.6011H100.891V96.0131ZM96.8289 96.0131H94.7975V95.6011H96.8289V96.0131ZM92.7663 96.0131H90.7349V95.6011H92.7663V96.0131ZM88.7037 96.0131H86.6723V95.6011H88.7037V96.0131ZM84.6411 96.0131H82.6097V95.6011H84.6411V96.0131ZM80.5784 96.0131H78.5471V95.6011H80.5784V96.0131ZM76.5158 96.0131H74.4845V95.6011H76.5158V96.0131ZM72.4532 96.0131H70.4219V95.6011H72.4532V96.0131ZM68.3906 96.0131H66.3593V95.6011H68.3906V96.0131ZM64.328 96.0131H62.2967V95.6011H64.328V96.0131ZM60.2654 96.0131H58.2341V95.6011H60.2654V96.0131ZM56.2028 96.0131H54.1715V95.6011H56.2028V96.0131ZM52.1402 96.0131H50.1089V95.6011H52.1402V96.0131ZM48.0776 96.0131H46.0463V95.6011H48.0776V96.0131ZM44.015 96.0131H41.9837V95.6011H44.015V96.0131ZM39.9524 96.0131H37.9211V95.6011H39.9524V96.0131ZM35.8898 96.0131H33.8585V95.6011H35.8898V96.0131ZM31.8272 96.0131H29.7959V95.6011H31.8272L31.8272 96.0131Z" fill="#3F3D56"/>
<path d="M185.354 96.0131H184.175V95.6008H185.017V94.5708H185.354V96.0131Z" fill="#3F3D56"/>
<path d="M185.354 92.0984H185.017V89.626H185.354V92.0984ZM185.354 87.1536H185.017V84.6811H185.354V87.1536ZM185.354 82.2087H185.017V79.7362H185.354V82.2087ZM185.354 77.2638H185.017V74.7914H185.354V77.2638ZM185.354 72.3189H185.017V69.8465H185.354V72.3189ZM185.354 67.374H185.017V64.9016H185.354V67.374ZM185.354 62.4292H185.017V59.9567H185.354V62.4292ZM185.354 57.4843H185.017V55.0118H185.354V57.4843ZM185.354 52.5394H185.017V50.0669H185.354V52.5394ZM185.354 47.5945H185.017V45.1221H185.354V47.5945Z" fill="#3F3D56"/>
<path d="M185.354 41.4136H185.017V42.6498H185.354V41.4136Z" fill="#3F3D56"/>
<path d="M135.814 83.4448H78.1858V156.794H135.814V83.4448Z" fill="#3F3D56"/>
<path d="M93.0141 93.0254H82.5669V102.091H93.0141V93.0254Z" fill="white"/>
<path d="M131.433 93.0254H102.619V94.0556H131.433V93.0254Z" fill="white"/>
<path d="M131.433 97.1465H102.619V98.1767H131.433V97.1465Z" fill="white"/>
<path d="M131.433 101.267H102.619V102.297H131.433V101.267Z" fill="white"/>
<path d="M93.0141 125.683H82.5669V134.748H93.0141V125.683Z" fill="white"/>
<path d="M131.433 125.683H102.619V126.713H131.433V125.683Z" fill="white"/>
<path d="M131.433 129.803H102.619V130.833H131.433V129.803Z" fill="white"/>
<path d="M131.433 133.924H102.619V134.954H131.433V133.924Z" fill="white"/>
<path d="M87.8349 99.8511L84.2588 94.021L85.106 93.2442L88.0191 97.9937L95.4447 90.6401L96.1152 91.6422L87.8349 99.8511Z" fill="#2189F7"/>
<path d="M87.8349 132.199L84.2588 126.369L85.106 125.592L88.0191 130.341L95.4447 122.988L96.1152 123.99L87.8349 132.199Z" fill="#2189F7"/>
<path d="M209.619 156.588H1.51648V157H209.619V156.588Z" fill="#3F3D56"/>
<path d="M114.254 43.6798C114.254 43.6798 119.814 40.7171 122.426 43.8467C125.038 46.9764 115.433 45.9462 114.254 43.6798Z" fill="#3F3D56"/>
<path d="M123.855 29.629C121.987 25.7682 118.29 25.5883 118.29 25.5883C118.29 25.5883 114.687 25.025 112.376 30.905C110.222 36.3857 107.249 41.6774 111.898 42.9604L112.737 39.7651L113.257 43.1983C113.919 43.2565 114.583 43.2704 115.246 43.2399C120.224 43.0434 124.965 43.2974 124.812 41.1132C124.609 38.2096 125.654 33.3439 123.855 29.629Z" fill="#2F2E41"/>
<path d="M126.47 99.6187C126.47 99.6187 124.111 104.976 122.595 104.976C121.078 104.976 121.247 108.478 121.584 109.302C121.921 110.127 122.763 111.981 121.415 114.659C120.944 115.595 121.029 116.656 121.337 117.641C122.203 120.401 125.571 119.565 125.464 116.612C125.462 116.579 125.461 116.547 125.459 116.514C125.291 113.217 126.639 108.066 127.987 106.83C129.335 105.594 130.514 102.297 130.514 102.297L126.47 99.6187Z" fill="#FFB8B8"/>
<path d="M110.294 98.3828C110.294 98.3828 112.653 103.74 114.169 103.74C115.686 103.74 115.517 107.242 115.18 108.067C114.843 108.891 114.001 110.745 115.349 113.423C115.82 114.359 115.736 115.42 115.427 116.405C114.561 119.165 111.193 118.329 111.301 115.376C111.302 115.344 111.303 115.311 111.305 115.278C111.473 111.981 110.125 106.83 108.777 105.594C107.429 104.358 106.25 101.061 106.25 101.061L110.294 98.3828Z" fill="#FFB8B8"/>
<path d="M112.147 72.0101L111.136 74.6885C111.136 74.6885 96.3081 80.6636 97.6561 87.6689C99.0041 94.6741 105.576 105.594 106.587 105.182C107.598 104.77 112.99 103.534 113.158 100.031C113.327 96.5284 109.283 90.3473 109.283 90.3473L114.843 84.1662L122.935 83.9602L129.84 90.3473C129.84 90.3473 122.595 98.1767 125.796 101.267C128.998 104.358 133.716 106.418 134.39 105.182C135.064 103.946 142.647 85.6085 141.467 83.9602C140.288 82.3119 128.324 76.1308 128.324 76.1308L125.122 70.5678L112.653 69.7437L112.147 72.0101Z" fill="#2F2E41"/>
<path d="M115.18 38.0138C115.18 38.0138 116.023 44.813 114.338 45.6371C112.653 46.4613 117.708 49.9639 117.708 49.9639H120.573L122.426 45.225C122.426 45.225 120.741 41.5164 121.752 38.0138C122.763 34.5111 115.18 38.0138 115.18 38.0138Z" fill="#FFB8B8"/>
<path opacity="0.1" d="M115.18 38.0138C115.18 38.0138 116.023 44.813 114.338 45.6371C112.653 46.4613 117.708 49.9639 117.708 49.9639H120.573L122.426 45.225C122.426 45.225 120.741 41.5164 121.752 38.0138C122.763 34.5111 115.18 38.0138 115.18 38.0138Z" fill="black"/>
<path d="M114.001 43.7827C114.001 43.7827 115.855 46.2552 116.192 46.6672C116.529 47.0793 118.045 49.3457 121.247 46.0491C124.448 42.7525 124.785 46.6672 124.785 46.6672V71.3917C124.785 71.3917 122.089 69.9494 119.899 71.3917C117.708 72.8339 113.158 70.9796 113.158 70.9796L112.316 45.431L114.001 43.7827Z" fill="white"/>
<path d="M115.239 43.7828C115.239 43.7828 113.664 42.9586 112.316 43.7828C110.968 44.6069 106.25 48.7277 106.587 50.582C106.924 52.4363 111.305 65.4167 108.272 71.5978C105.239 77.7789 104.733 79.4272 104.733 79.4272L112.147 74.6883C112.147 74.6883 117.877 70.3615 117.371 67.6831C116.866 65.0046 115.239 43.7828 115.239 43.7828Z" fill="#2189F7"/>
<path d="M121.923 43.7827C121.923 43.7827 125.459 44.1948 125.628 44.6069C125.796 45.0189 130.936 46.7702 130.599 48.6246C130.262 50.4789 125.628 67.0649 127.65 70.1554C129.672 73.246 133.042 77.5727 131.862 77.9848C130.683 78.3969 128.661 77.3667 126.639 77.9848C124.617 78.6029 119.899 73.452 120.404 67.889C120.91 62.326 120.408 45.225 121.923 43.7827Z" fill="#2189F7"/>
<path d="M113.495 83.1357V85.196C113.495 85.196 112.653 89.9349 115.349 89.7288C118.045 89.5228 116.36 83.9598 116.36 83.9598L116.192 82.1055L113.495 83.1357Z" fill="#FFB8B8"/>
<path d="M121.078 83.3418C121.078 83.3418 119.225 88.0806 121.078 88.4927C122.932 88.9048 124.28 85.8142 124.28 84.9901C124.28 84.1659 121.078 83.3418 121.078 83.3418Z" fill="#FFB8B8"/>
<path d="M123.521 36.0565C123.708 36.0565 123.858 35.6875 123.858 35.2323C123.858 34.7772 123.708 34.4082 123.521 34.4082C123.335 34.4082 123.184 34.7772 123.184 35.2323C123.184 35.6875 123.335 36.0565 123.521 36.0565Z" fill="#FFB8B8"/>
<path d="M113.58 36.0565C113.766 36.0565 113.917 35.6875 113.917 35.2323C113.917 34.7772 113.766 34.4082 113.58 34.4082C113.394 34.4082 113.243 34.7772 113.243 35.2323C113.243 35.6875 113.394 36.0565 113.58 36.0565Z" fill="#FFB8B8"/>
<path d="M126.47 46.4614C126.47 46.4614 130.683 46.4614 130.514 48.5218C130.346 50.5822 124.785 86.0205 124.785 86.0205C124.785 86.0205 122.426 83.342 120.404 83.9601L126.47 46.4614Z" fill="#2189F7"/>
<path d="M110.125 47.0796C110.125 47.0796 105.913 48.1098 105.913 51.2003C105.913 54.2909 111.979 83.9602 112.822 83.9602C113.664 83.9602 116.866 83.3421 116.866 82.3119C116.866 81.2817 110.125 47.0796 110.125 47.0796Z" fill="#2189F7"/>
<path opacity="0.2" d="M111.052 53.1577L114.844 71.2871C114.844 71.2871 113.074 55.4241 111.052 53.1577Z" fill="black"/>
<path opacity="0.2" d="M125.799 50.6099L121.965 74.3131C121.965 74.3131 123.19 51.9772 125.799 50.6099Z" fill="black"/>
<path d="M118.551 41.3105C121.249 41.3105 123.437 38.6354 123.437 35.3354C123.437 32.0355 121.249 29.3604 118.551 29.3604C115.852 29.3604 113.664 32.0355 113.664 35.3354C113.664 38.6354 115.852 41.3105 118.551 41.3105Z" fill="#FFB8B8"/>
<path d="M123.029 29.2568L119.377 26.9175L114.333 27.8744L113.289 33.5102L115.887 33.3881L116.613 31.3176V33.354L117.811 33.2975L118.507 30.001L118.942 33.5102L123.203 33.404L123.029 29.2568Z" fill="#2F2E41"/>
</g>
<defs>
<clipPath id="clip0_320_366">
<rect width="214" height="157" fill="white"/>
</clipPath>
</defs>
</svg>
