<svg width="214" height="157" viewBox="0 0 214 157" fill="none" xmlns="http://www.w3.org/2000/svg">
<g clip-path="url(#clip0_320_467)">
<path d="M211.917 2.94492e-09H67.1131C66.5616 0.000522672 66.0327 0.238658 65.6427 0.662127C65.2527 1.0856 65.0334 1.65979 65.033 2.25866V59.0903H100.077C101.026 59.0916 101.935 59.5013 102.606 60.2297C103.277 60.958 103.654 61.9456 103.655 62.9756V111.058H211.917C212.218 111.058 212.515 110.987 212.788 110.85C213.062 110.713 213.304 110.513 213.499 110.265C213.516 110.245 213.531 110.225 213.544 110.203C213.669 110.038 213.769 109.854 213.843 109.656C213.947 109.385 214.001 109.093 214 108.799V2.25866C213.999 1.65938 213.78 1.08487 213.389 0.661356C212.999 0.237844 212.469 -3.05608e-05 211.917 2.94492e-09Z" fill="#B9B9B9"/>
<path d="M213.701 9.05322H65.3289V9.69891H213.701V9.05322Z" fill="white"/>
<path d="M70.3836 6.7799C71.3689 6.7799 72.1677 5.91264 72.1677 4.84283C72.1677 3.77302 71.3689 2.90576 70.3836 2.90576C69.3984 2.90576 68.5996 3.77302 68.5996 4.84283C68.5996 5.91264 69.3984 6.7799 70.3836 6.7799Z" fill="white"/>
<path d="M75.5128 6.7799C76.4981 6.7799 77.2968 5.91264 77.2968 4.84283C77.2968 3.77302 76.4981 2.90576 75.5128 2.90576C74.5275 2.90576 73.7288 3.77302 73.7288 4.84283C73.7288 5.91264 74.5275 6.7799 75.5128 6.7799Z" fill="white"/>
<path d="M80.6419 6.7799C81.6272 6.7799 82.426 5.91264 82.426 4.84283C82.426 3.77302 81.6272 2.90576 80.6419 2.90576C79.6566 2.90576 78.8579 3.77302 78.8579 4.84283C78.8579 5.91264 79.6566 6.7799 80.6419 6.7799Z" fill="white"/>
<path d="M176.73 23.1514H102.3C101.478 23.1514 100.689 23.5061 100.107 24.1376C99.5257 24.7691 99.199 25.6256 99.199 26.5186C99.199 27.4117 99.5257 28.2682 100.107 28.8996C100.689 29.5311 101.478 29.8859 102.3 29.8859H176.73C177.553 29.8859 178.341 29.5311 178.923 28.8996C179.505 28.2682 179.831 27.4117 179.831 26.5186C179.831 25.6256 179.505 24.7691 178.923 24.1376C178.341 23.5061 177.553 23.1514 176.73 23.1514ZM176.73 29.3679H102.3C101.604 29.3679 100.937 29.0677 100.445 28.5333C99.9526 27.999 99.6761 27.2743 99.6761 26.5186C99.6761 25.763 99.9526 25.0383 100.445 24.5039C100.937 23.9696 101.604 23.6694 102.3 23.6694H176.73C177.426 23.6694 178.094 23.9696 178.586 24.5039C179.078 25.0383 179.354 25.763 179.354 26.5186C179.354 27.2743 179.078 27.999 178.586 28.5333C178.094 29.0677 177.426 29.3679 176.73 29.3679Z" fill="#3E3D3D"/>
<path d="M199.505 49.978H125.075C124.253 49.978 123.464 50.3328 122.882 50.9643C122.301 51.5958 121.974 52.4522 121.974 53.3453C121.974 54.2383 122.301 55.0948 122.882 55.7263C123.464 56.3578 124.253 56.7126 125.075 56.7126H199.505C200.328 56.7126 201.117 56.3578 201.698 55.7263C202.28 55.0948 202.606 54.2383 202.606 53.3453C202.606 52.4522 202.28 51.5958 201.698 50.9643C201.117 50.3328 200.328 49.978 199.505 49.978Z" fill="white"/>
<path d="M199.505 62.4106H125.075C124.253 62.4106 123.464 62.7654 122.882 63.3969C122.301 64.0284 121.974 64.8849 121.974 65.7779C121.974 66.671 122.301 67.5274 122.882 68.1589C123.464 68.7904 124.253 69.1452 125.075 69.1452H199.505C200.328 69.1452 201.117 68.7904 201.698 68.1589C202.28 67.5274 202.606 66.671 202.606 65.7779C202.606 64.8849 202.28 64.0284 201.698 63.3969C201.117 62.7654 200.328 62.4106 199.505 62.4106Z" fill="white"/>
<path d="M199.505 74.8438H125.075C124.253 74.8438 123.464 75.1985 122.882 75.83C122.301 76.4615 121.974 77.318 121.974 78.211C121.974 79.1041 122.301 79.9605 122.882 80.592C123.464 81.2235 124.253 81.5783 125.075 81.5783H199.505C200.328 81.5783 201.117 81.2235 201.698 80.592C202.28 79.9605 202.606 79.1041 202.606 78.211C202.606 77.318 202.28 76.4615 201.698 75.83C201.117 75.1985 200.328 74.8438 199.505 74.8438Z" fill="white"/>
<path d="M113.047 44.4092H79.1674C78.4407 44.4101 77.744 44.724 77.2301 45.2819C76.7162 45.8398 76.4271 46.5963 76.4263 47.3853V59.0905H76.9034V47.3853C76.9043 46.7337 77.1431 46.109 77.5675 45.6483C77.9919 45.1875 78.5672 44.9282 79.1674 44.9272H113.047C113.648 44.9278 114.223 45.1869 114.648 45.6478C115.072 46.1087 115.311 46.7336 115.311 47.3853V84.1714C115.311 84.8231 115.072 85.4481 114.648 85.9089C114.223 86.3698 113.648 86.6289 113.047 86.6295H103.655V87.1475H113.047C113.774 87.147 114.471 86.8333 114.985 86.2753C115.499 85.7173 115.788 84.9606 115.788 84.1714V47.3853C115.788 46.5962 115.499 45.8395 114.985 45.2814C114.471 44.7234 113.774 44.4097 113.047 44.4092Z" fill="#3E3D3D"/>
<path d="M25.1973 82.2565C25.0775 82.2617 19.9705 81.8773 19.8401 81.8725L20.2989 76.9L23.2077 76.8049L28.7661 65.6268C27.9951 64.0307 28.9438 61.9129 30.5792 61.5865C33.8746 60.7732 35.0066 66.4025 31.7011 67.1516L27.1036 80.8106C26.9594 81.2338 26.6995 81.599 26.3588 81.8574C26.0181 82.1158 25.6129 82.255 25.1973 82.2565Z" fill="#FFB8B8"/>
<path d="M11.7333 84.8178C6.87347 84.8308 6.44685 76.8561 11.3174 76.2942C24.1968 75.4492 22.5669 71.937 23.545 82.297C23.575 82.6043 23.4916 82.912 23.3129 83.1526C23.1343 83.3931 22.875 83.5469 22.5921 83.5801L12.1551 84.7933C12.015 84.8096 11.8742 84.8178 11.7333 84.8178Z" fill="#2189F7"/>
<path d="M10.6241 59.6042C17.3191 63.7407 11.8228 74.6549 5.00299 70.7684C-1.6918 66.6321 3.80446 55.7179 10.6241 59.6042Z" fill="#FFB8B8"/>
<path d="M16.7107 153.553L19.6352 153.553L21.0267 141.304L16.7102 141.304L16.7107 153.553Z" fill="#FFB8B8"/>
<path d="M16.084 156.502L25.2758 156.501C25.2407 151.352 19.0928 152.836 16.0839 152.646L16.084 156.502Z" fill="#2F2E41"/>
<path d="M4.06713 153.553L6.9916 153.553L8.38311 141.304L4.06665 141.304L4.06713 153.553Z" fill="#FFB8B8"/>
<path d="M3.44047 156.502L12.6323 156.501C12.5971 151.352 6.44928 152.836 3.44031 152.646L3.44047 156.502Z" fill="#2F2E41"/>
<path d="M7.39094 149.276C6.68409 149.065 2.84312 149.702 2.38982 148.866C0.806753 131.638 1.15865 114.778 4.67275 105.514L16.7552 104.71C19.4571 110.066 25.6678 145.603 21.9214 147.764L17.1039 147.95C16.8292 147.96 16.5597 147.867 16.3408 147.687C16.1219 147.506 15.9669 147.249 15.9017 146.959L11.8713 122.063C10.8677 120.54 8.89479 148.282 8.569 148.178C8.52651 148.484 8.38415 148.763 8.16788 148.965C7.95162 149.166 7.67586 149.277 7.39094 149.276Z" fill="#2F2E41"/>
<path d="M4.28901 107.691C-1.81128 100.761 2.07988 82.1829 1.88294 82.5781C1.89966 82.123 3.28136 75.1141 6.85555 73.9638C9.69121 72.9477 12.8298 75.9872 13.2169 79.0615L17.4648 106.298C17.4867 106.447 17.4763 106.598 17.4343 106.741C17.3923 106.885 17.3199 107.015 17.2229 107.122C17.4318 107.828 4.58765 107.549 4.28901 107.691Z" fill="#2189F7"/>
<path d="M6.26881 64.4787C6.80454 64.111 7.06858 63.4803 7.38041 62.9058C9.02298 61.8894 10.9112 64.3483 12.6486 63.4306C17.5611 58.31 12.5116 56.7993 7.98705 56.5293C6.91822 56.3863 6.009 56.7979 5.20092 57.4778C-3.83699 56.7284 0.49746 69.7769 6.20148 71.5003C7.20857 71.9792 7.96405 71.0098 7.07591 70.1286C5.84713 68.7299 4.32496 65.9144 6.26881 64.4787Z" fill="#2F2E41"/>
<path d="M100.077 58.5723H34.7123C33.6372 58.5739 32.6066 59.0384 31.8464 59.8638C31.0861 60.6892 30.6584 61.8083 30.6569 62.9756V152.597C30.6584 153.764 31.0861 154.883 31.8464 155.708C32.6066 156.534 33.6372 156.998 34.7123 157H100.077C101.152 156.998 102.183 156.534 102.943 155.708C103.703 154.883 104.131 153.764 104.133 152.597V62.9756C104.131 61.8083 103.703 60.6892 102.943 59.8638C102.183 59.0384 101.152 58.5739 100.077 58.5723ZM103.655 152.597C103.654 153.627 103.277 154.614 102.606 155.343C101.935 156.071 101.026 156.481 100.077 156.482H34.7123C33.7636 156.481 32.8542 156.071 32.1833 155.343C31.5125 154.614 31.1351 153.627 31.134 152.597V62.9756C31.1351 61.9455 31.5125 60.958 32.1833 60.2297C32.8542 59.5013 33.7636 59.0916 34.7123 59.0903H100.077C101.026 59.0916 101.935 59.5013 102.606 60.2297C103.277 60.958 103.654 61.9455 103.655 62.9756V152.597Z" fill="#3F3D56"/>
<path d="M16.295 96.2853C14.1407 96.5503 13.1949 91.1069 12.3712 89.72L16.6616 87.9111L18.0577 90.6834L29.7537 90.9991C29.8232 90.8969 29.8991 90.7999 29.9809 90.709C32.3004 88.072 36.0778 92.0231 33.7671 94.6544C33.5121 94.9485 33.2027 95.1807 32.8591 95.3355C32.5155 95.4903 32.1456 95.5643 31.7738 95.5526C31.402 95.541 31.0366 95.4439 30.7019 95.2677C30.3671 95.0916 30.0705 94.8404 29.8317 94.5308C29.5428 94.5532 16.5775 96.2935 16.295 96.2853Z" fill="#FFB8B8"/>
<path d="M13.1177 93.6867C12.4003 94.4372 6.89353 83.9027 6.49122 83.6049C3.70861 78.9089 10.2594 74.2724 13.0899 78.943L18.8146 88.4954C18.9696 88.7546 19.0235 89.07 18.9646 89.3723C18.9057 89.6746 18.7387 89.9392 18.5003 90.108C18.2394 90.2406 13.3018 93.972 13.1177 93.6867Z" fill="#2189F7"/>
<path d="M87.195 120.608H47.5945C43.5493 120.586 43.5325 113.896 47.5947 113.873H87.195C91.2374 113.894 91.2593 120.585 87.195 120.608Z" fill="#CCCCCC"/>
<path d="M87.195 133.041H47.5945C43.5493 133.02 43.5325 126.329 47.5947 126.306H87.195C91.2374 126.327 91.2593 133.018 87.195 133.041Z" fill="#CCCCCC"/>
<path d="M87.195 145.474H47.5945C43.5493 145.453 43.5325 138.762 47.5947 138.739H87.195C91.2374 138.76 91.2593 145.451 87.195 145.474Z" fill="#CCCCCC"/>
<path d="M101.985 66.8612C100.759 66.8612 99.5595 66.4662 98.5395 65.7262C97.5195 64.9862 96.7246 63.9344 96.2551 62.7038C95.7856 61.4732 95.6628 60.1192 95.9021 58.8128C96.1415 57.5064 96.7322 56.3064 97.5996 55.3646C98.4671 54.4228 99.5722 53.7813 100.775 53.5215C101.979 53.2616 103.226 53.395 104.359 53.9047C105.492 54.4144 106.461 55.2776 107.143 56.3851C107.824 57.4926 108.188 58.7947 108.188 60.1266C108.186 61.9121 107.532 63.6239 106.369 64.8864C105.206 66.149 103.63 66.8591 101.985 66.8612Z" fill="#2189F7"/>
<path d="M104.848 59.8674H102.224V56.6296C102.224 56.5609 102.199 56.495 102.154 56.4465C102.109 56.3979 102.049 56.3706 101.986 56.3706C101.922 56.3706 101.862 56.3979 101.817 56.4465C101.772 56.495 101.747 56.5609 101.747 56.6296V59.8674H99.1228C99.0596 59.8674 98.9989 59.8947 98.9541 59.9432C98.9094 59.9918 98.8843 60.0577 98.8843 60.1264C98.8843 60.1951 98.9094 60.261 98.9541 60.3096C98.9989 60.3581 99.0596 60.3854 99.1228 60.3854H101.747V63.6232C101.747 63.6919 101.772 63.7578 101.817 63.8063C101.862 63.8549 101.922 63.8822 101.986 63.8822C102.049 63.8822 102.109 63.8549 102.154 63.8063C102.199 63.7578 102.224 63.6919 102.224 63.6232V60.3854H104.848C104.911 60.3854 104.972 60.3581 105.017 60.3096C105.062 60.261 105.087 60.1951 105.087 60.1264C105.087 60.0577 105.062 59.9918 105.017 59.9432C104.972 59.8947 104.911 59.8674 104.848 59.8674Z" fill="white"/>
<path d="M86.4791 105.791H48.31C47.2664 105.79 46.2659 105.339 45.528 104.538C44.79 103.737 44.375 102.651 44.3738 101.518V78.3095C44.375 77.1764 44.79 76.0901 45.528 75.2888C46.2659 74.4876 47.2664 74.0369 48.31 74.0356H86.4791C87.5227 74.0369 88.5232 74.4876 89.2612 75.2888C89.9991 76.0901 90.4142 77.1764 90.4153 78.3095V101.518C90.4142 102.651 89.9991 103.737 89.2612 104.538C88.5232 105.339 87.5227 105.79 86.4791 105.791Z" fill="#2189F7"/>
</g>
<defs>
<clipPath id="clip0_320_467">
<rect width="214" height="157" fill="white"/>
</clipPath>
</defs>
</svg>
